<?xml version="1.0" standalone="no"?><!DOCTYPE svg PUBLIC "-//W3C//DTD SVG 1.1//EN" "http://www.w3.org/Graphics/SVG/1.1/DTD/svg11.dtd"><svg t="1525931320396" class="icon" style="" viewBox="0 0 1024 1024" version="1.1" xmlns="http://www.w3.org/2000/svg" p-id="17582" xmlns:xlink="http://www.w3.org/1999/xlink" width="200" height="200"><defs><style type="text/css"></style></defs><path d="M327.822 690.749h234.714v70.325H277.032v-19.536c0-28.049 22.74-50.789 50.79-50.789M746.16 488.793a510.778 510.778 0 0 1 94.066 10.519c0.218 4.205 0.218 8.417 0 12.622a114.816 114.816 0 0 1-30.053 77.537 94.972 94.972 0 0 1-65.515 31.857v-30.054a44.183 44.183 0 0 0 16.229-39.068 44.184 44.184 0 0 0-16.229-39.071l1.502-24.342z m-23.74-54.997a78.432 78.432 0 0 1 10.218-37.265 38.767 38.767 0 0 1 33.358-19.235 98.58 98.58 0 0 1 34.861 5.711c12.021 3.605 24.943 9.015 38.168 14.424a478.317 478.317 0 0 0 43.876 17.431 81.748 81.748 0 0 0 50.189 2.104 58.307 58.307 0 0 0 33.059-43.277l2.703-5.108 6.612 1.803 12.922 3.907 6.613 1.803-2.104 6.612a84.146 84.146 0 0 1-48.386 61.608 109.39 109.39 0 0 1-68.52-2.103c-8.417-2.405-16.529-5.409-24.946-8.415l-24.341-9.618a175.17 175.17 0 0 0-60.106-18.03 13.516 13.516 0 0 0-12.32 8.414 51.98 51.98 0 0 0-4.21 20.437h7.214l8.716 44.778H705.89l8.716-44.778 7.814-1.203z" fill="#bfbfbf" p-id="17583"></path><path d="M873.284 504.722l-12.322-3.006v11.121a140.344 140.344 0 0 1-35.462 96.169c-42.188 48.215-115.476 53.104-163.693 10.915a116.144 116.144 0 0 1-10.913-10.915 140.368 140.368 0 0 1-35.767-94.667V502.92l-12.32 3.306v262.963c0 74.689 60.549 135.238 135.24 135.238 74.689 0 135.237-60.549 135.237-135.238V504.722z" fill="#bfbfbf" p-id="17584"></path><path d="M637.97 499.011a448.986 448.986 0 0 1 90.158-10.217v23.741a43.578 43.578 0 0 0-16.83 39.069 43.578 43.578 0 0 0 16.83 39.068v30.053a95.558 95.558 0 0 1-62.21-30.053 114.81 114.81 0 0 1-30.052-77.538 129.029 129.029 0 0 1 0-13.223m-207.967-94.064v146.059l30.053-28.25 27.948 61.908c3.984 8.797 14.345 12.697 23.143 8.717 8.795-3.985 12.697-14.345 8.714-23.142l-30.052-63.713 38.467-7.513-98.273-94.066z" fill="#bfbfbf" p-id="17585"></path><path d="M147.204 135.069a94.368 94.368 0 0 0-70.022 32.157 109.99 109.99 0 0 0-27.95 73.329v326.376a110 110 0 0 0 27.95 72.128 94.07 94.07 0 0 0 70.022 32.157h415.333v-50.79H147.204a42.37 42.37 0 0 1-30.053-14.727 57.707 57.707 0 0 1-15.627-38.769V240.555a57.698 57.698 0 0 1 14.426-38.768 42.375 42.375 0 0 1 30.052-14.727h631.113a42.372 42.372 0 0 1 30.053 14.727 57.696 57.696 0 0 1 14.428 38.768v107.892c9.616 3.606 18.933 7.213 28.249 11.12l27.048 9.015V240.555a109.698 109.698 0 0 0-27.65-73.629 94.362 94.362 0 0 0-70.022-31.856H147.204z" fill="#bfbfbf" p-id="17586"></path></svg>