<?xml version="1.0" standalone="no"?><!DOCTYPE svg PUBLIC "-//W3C//DTD SVG 1.1//EN" "http://www.w3.org/Graphics/SVG/1.1/DTD/svg11.dtd"><svg t="1525931875208" class="icon" style="" viewBox="0 0 1024 1024" version="1.1" xmlns="http://www.w3.org/2000/svg" p-id="3247" xmlns:xlink="http://www.w3.org/1999/xlink" width="200" height="200"><defs><style type="text/css"></style></defs><path d="M334.2592 769.7152C324.1472 802.0608 294.08 825.536 258.56 825.536 214.7328 825.536 179.2128 789.8112 179.2128 745.7408 179.2128 701.6832 214.7328 665.9584 258.56 665.9584 294.08 665.9584 324.1472 689.4336 334.2592 721.792L844.7872 721.792 844.7872 769.7152 334.2592 769.7152ZM258.56 713.984C241.1136 713.984 226.9696 728.2048 226.9696 745.7408 226.9696 763.2896 241.1136 777.5232 258.56 777.5232 276.0064 777.5232 290.1504 763.2896 290.1504 745.7408 290.1504 728.2048 276.0064 713.984 258.56 713.984ZM511.4752 615.4752 844.7872 615.4752 844.7872 663.3088 511.4752 663.3088 511.4752 615.4752ZM258.56 591.808C214.7328 591.808 179.2128 556.0832 179.2128 512.0128 179.2128 467.9552 214.7328 432.2304 258.56 432.2304 294.08 432.2304 324.1472 455.7056 334.2592 488.0512L844.7872 488.0512 844.7872 535.9872 334.2592 535.9872C324.1472 568.3328 294.08 591.808 258.56 591.808ZM258.56 480.256C241.1136 480.256 226.9696 494.4768 226.9696 512.0128 226.9696 529.5616 241.1136 543.7824 258.56 543.7824 276.0064 543.7824 290.1504 529.5616 290.1504 512.0128 290.1504 494.4768 276.0064 480.256 258.56 480.256ZM511.4752 379.1616 844.7872 379.1616 844.7872 426.9952 511.4752 426.9952 511.4752 379.1616ZM258.56 358.08C214.7328 358.08 179.2128 322.3552 179.2128 278.2848 179.2128 234.2272 214.7328 198.5024 258.56 198.5024 294.08 198.5024 324.1472 221.9776 334.2592 254.3232L844.7872 254.3232 844.7872 302.2592 334.2592 302.2592C324.1344 334.6048 294.08 358.08 258.56 358.08ZM258.56 246.528C241.1136 246.528 226.9696 260.7488 226.9696 278.2848 226.9696 295.8336 241.1136 310.0544 258.56 310.0544 276.0064 310.0544 290.1504 295.8336 290.1504 278.2848 290.1504 260.7488 276.0064 246.528 258.56 246.528Z" p-id="3248" fill="#bfbfbf"></path></svg>