<?xml version="1.0" standalone="no"?><!DOCTYPE svg PUBLIC "-//W3C//DTD SVG 1.1//EN" "http://www.w3.org/Graphics/SVG/1.1/DTD/svg11.dtd"><svg t="1525930399534" class="icon" style="" viewBox="0 0 1024 1024" version="1.1" xmlns="http://www.w3.org/2000/svg" p-id="13802" xmlns:xlink="http://www.w3.org/1999/xlink" width="200" height="200"><defs><style type="text/css"></style></defs><path d="M236.544 863.232c-17.408 0-30.72-13.312-30.72-30.72 0-164.864 134.144-355.328 306.176-355.328 145.408 0 251.904 130.048 289.792 250.88a31.09888 31.09888 0 0 1-59.392 18.432C710.656 642.048 621.568 537.6 512 537.6c-136.192 0-244.736 160.768-244.736 293.888 0 17.408-14.336 31.744-30.72 31.744z" p-id="13803" fill="#bfbfbf"></path><path d="M512 536.576c-161.792 0-287.744-162.816-304.128-319.488h-31.744c-39.936 0-72.704-32.768-72.704-72.704v-6.144c0-39.936 32.768-72.704 72.704-72.704h671.744c39.936 0 72.704 32.768 72.704 72.704v6.144c0 39.936-32.768 72.704-72.704 72.704h-31.744C799.744 373.76 673.792 536.576 512 536.576zM176.128 128c-6.144 0-11.264 5.12-11.264 11.264v6.144c0 6.144 5.12 11.264 11.264 11.264h60.416c16.384 0 30.72 13.312 30.72 29.696C269.312 316.416 378.88 475.136 512 475.136s242.688-158.72 244.736-289.792c0-16.384 14.336-29.696 30.72-29.696h60.416c6.144 0 11.264-5.12 11.264-11.264v-6.144c0-6.144-5.12-11.264-11.264-11.264H176.128zM847.872 957.44H176.128c-39.936 0-72.704-32.768-72.704-72.704v-6.144c0-39.936 32.768-72.704 72.704-72.704h60.416c17.408 0 30.72 13.312 30.72 30.72s-13.312 30.72-30.72 30.72h-60.416c-6.144 0-11.264 5.12-11.264 11.264v6.144c0 6.144 5.12 11.264 11.264 11.264h671.744c6.144 0 11.264-5.12 11.264-11.264v-6.144c0-6.144-5.12-11.264-11.264-11.264h-60.416c-17.408 0-30.72-13.312-30.72-30.72s13.312-30.72 30.72-30.72h60.416c39.936 0 72.704 32.768 72.704 72.704v6.144c0 39.936-32.768 72.704-72.704 72.704z" p-id="13804" fill="#bfbfbf"></path></svg>