<?xml version="1.0" standalone="no"?><!DOCTYPE svg PUBLIC "-//W3C//DTD SVG 1.1//EN" "http://www.w3.org/Graphics/SVG/1.1/DTD/svg11.dtd"><svg t="1525400773318" class="icon" style="" viewBox="0 0 1024 1024" version="1.1" xmlns="http://www.w3.org/2000/svg" p-id="562" xmlns:xlink="http://www.w3.org/1999/xlink" width="200" height="200"><defs><style type="text/css"></style></defs><path d="M881.593854 515.208474c0.033769 122.466117 0.378623 244.939398-0.078795 367.406538-0.346901 93.379685-45.383593 138.902448-138.227067 139.567597-90.002778 0.649799-180.012718 0.373506-270.018566 0.060375-58.924993-0.197498-73.92051-15.007797-74.40658-72.503232-0.311085-36.880949-0.095167-73.768038-0.042979-110.657173 0.091074-68.103019-2.7926-71.042976-69.027064-71.061395-39.838302-0.008186-79.686836 0.24457-119.514905-0.47686-48.036001-0.873903-66.024686-16.549918-66.211951-63.038681-0.765432-191.815523-1.367136-383.653558 0.2415-575.458847 0.675382-80.645673 46.352664-126.479521 127.60004-127.517153 159.33274-2.042518 318.720739-1.920744 478.062688-0.337691 85.316039 0.84832 130.277007 47.243963 131.223565 133.34897C882.58646 261.419532 881.553945 388.321678 881.593854 515.208474zM509.174142 583.379032c11.803827 0 23.707939 1.021259 35.386923-0.173962 65.640947-6.677068 126.461102-57.493389 133.257896-116.978131 1.781575-15.616663-6.952337-34.565209-27.972052-41.250463-22.641655-4.912889-31.338727 6.139832-39.28674 17.760488-3.588732 5.24751-6.049781 13.115705-9.153467 19.803006-19.007897 41.005893-52.847583 58.940343-96.24801 57.434037-43.476152-1.512445-76.012147-21.799474-91.442568-64.424236-19.914546-55.022107-20.032226-110.30311 3.092429-164.043015 23.570816-54.78777 86.221664-80.585298 135.841742-53.108526 21.72375 12.034071 38.483445 35.166913 53.80949 55.979921 14.64657 19.899196 40.61806 26.238573 61.536469 8.936526 11.980859-9.913782 11.232823-32.978062 3.27867-43.306283-24.124424-31.326447-52.336953-66.718487-87.027006-81.216678-76.077638-31.810471-152.969827-21.601976-211.65946 41.637272-68.858219 74.200896-70.017624 163.195718-36.706987 252.708332C364.971995 551.310688 426.554513 586.001764 509.174142 583.379032z" p-id="563" fill="#f4ad1b"></path><path d="M343.344436 1009.874293C279.346918 947.298146 218.162466 887.46548 152.711855 823.467962c55.14695 0 107.447064-2.305507 159.237573 1.799994 11.388366 0.896416 28.885864 23.943299 29.963405 37.835693C345.632547 911.196955 343.344436 959.758935 343.344436 1009.874293z" p-id="564" fill="#f4ad1b"></path></svg>