<?xml version="1.0" standalone="no"?><!DOCTYPE svg PUBLIC "-//W3C//DTD SVG 1.1//EN" "http://www.w3.org/Graphics/SVG/1.1/DTD/svg11.dtd"><svg t="1525400633983" class="icon" style="" viewBox="0 0 1024 1024" version="1.1" xmlns="http://www.w3.org/2000/svg" p-id="4483" xmlns:xlink="http://www.w3.org/1999/xlink" width="200" height="200"><defs><style type="text/css"></style></defs><path d="M951.703 500.162c-2.329-97.802-50.064-135.059-90.815-147.866s-125.744 4.657-172.316 13.972-202.587 3.493-271.28-30.272-187.451-4.657-187.451-4.657-193.274 58.214-146.702 253.817c74.515 222.38 394.697 196.766 587.969 168.822s282.924-156.016 280.595-253.817zM892.906 559.542c-27.361 64.036-117.594 129.82-281.759 149.029s-241.591 0-260.22-6.986-192.109-44.825-196.766-175.227c3.493-64.036 26.779-86.739 26.779-86.739s35.511-71.022 99.548-57.633 183.377 58.797 230.531 68.111 171.151 4.076 215.977-13.972 107.115-23.869 141.462 1.746 51.811 57.633 24.45 121.668z" p-id="4484" fill="#25e6ee"></path><path d="M276.054 502.754h42.711c20.272 0 34.587 0.258 42.943 3.1 8.356 2.844 12.534 11.123 12.534 20.178v51.017c0 7.035-3.637 12.646-10.91 16.838-7.276 4.191-19.423 6.286-36.444 6.286h-50.836v-97.419zM343.683 573.738c3.98-1.036 5.972-3.67 5.972-7.908v-29.458c0-3.516-1.738-5.791-5.212-6.828s-21.214-1.6-25.264-1.69c-0.868 0-1.703 0-2.497 0-0.798 0-14.437 0-15.306 0v47.44c6.368 0 38.325-0.517 42.308-1.555z" p-id="4485" fill="#25e6ee"></path><path d="M411.626 503.143v67.248c0 2.346 1.087 3.028 3.258 4.381s16.204 0.909 18.811 0.997c0.142 0 0.251 0 0.326 0 0.070 0 0.18 0 0.325 0 0.289 0 0.578 0 0.868 0 0.289 0 0.507-0.045 0.652-0.135 2.606-0.18 16.639 0.174 18.811-1.268 2.171-1.44 3.258-2.304 3.258-4.919v-66.302h26.080v62.515c0 10.817-6.313 26.358-14.272 30.325-7.963 3.966-18.75 4.784-32.356 4.784-16.215 0-28.447-0.817-36.699-4.784-8.251-3.965-14.706-18.562-14.706-27.484v-65.356h25.645z" p-id="4486" fill="#25e6ee"></path><path d="M492.708 502.449h52.257c11.855 0 22.572 1.683 32.144 5.040 9.575 3.36 14.364 11.579 14.364 20 0 5.394 0.799 12.288-2.012 15.315-2.815 3.030-3.441 2.525-6.782 3.847-1.367 0.476-2.736 0.877-4.103 1.207-1.367 0.332-2.587 0.546-3.648 0.639 8.055 2.461 9.211 5.277 12.784 8.446 3.569 3.171 5.357 8.069 5.357 14.691 0 8.896-3.573 16.898-10.715 21.676-7.147 4.78-19.076 7.168-35.794 7.168h-53.853v-98.031zM563.859 541.179c3.399-1.441 5.103-4.596 5.103-9.465 0-2.343-1.052-5.356-3.148-6.707-2.1-1.353-5.031-2.029-8.795-2.029h-40.185v19.198c8.54 0 43.621 0.445 47.024-0.997zM561.886 579.358c4.415-1.171 6.623-4.37 6.623-9.599 0-4.867-2.389-5.581-7.165-6.797-4.779-1.217-36.691 0.278-44.51-0.172v15.998c8.541 0 40.635 1.743 45.053 0.57z" p-id="4487" fill="#25e6ee"></path><path d="M601.278 502.449h52.257c11.855 0 22.572 1.683 32.144 5.040 9.575 3.36 14.364 11.579 14.364 20 0 5.394 0.726 12.288-2.084 15.315-2.815 3.030-3.366 2.525-6.708 3.847-1.367 0.476-2.736 0.877-4.103 1.207-1.367 0.332-2.587 0.546-3.648 0.639 8.055 2.461 9.211 5.277 12.784 8.446 3.569 3.171 5.357 8.069 5.357 14.691 0 8.896-3.573 16.898-10.715 21.676-7.147 4.779-19.075 7.167-35.792 7.167h-53.853v-98.030zM672.428 541.179c3.399-1.441 5.103-4.596 5.103-9.465 0-2.343-1.052-5.356-3.148-6.707-2.1-1.353-5.031-2.029-8.795-2.029h-40.185v19.198c8.54 0 43.621 0.445 47.024-0.997zM670.456 579.358c4.415-1.171 6.623-4.37 6.623-9.599 0-4.867-2.389-5.581-7.165-6.797-4.779-1.217-36.691 0.278-44.51-0.172v15.998c8.541 0 40.635 1.743 45.053 0.57z" p-id="4488" fill="#25e6ee"></path><path d="M713.050 528.050c0-9.012 4.631-16.555 13.898-20.295 9.262-3.74 20.483-5.611 33.658-5.611 1.738 0 3.509 0.047 5.319 0.135 1.809 0.091 3.583 0.181 5.319 0.269 9.263 0.812 17.698 3.021 25.298 6.625 7.599 3.606 11.401 10.676 11.401 18.877v40.155c0 8.924-3.802 17.165-11.401 22.391-7.599 5.229-14.265 10.172-31.636 10.172-17.664 0-35.571-1.788-42.085-7.692-6.515-5.902-9.773-17.299-9.773-24.87v-40.155zM738.697 571.774c0 2.525 1.265 5.604 3.801 6.911 2.531 1.308 16.964 0.797 20.004 0.797 0.142 0 0.252 0 0.326 0 0.070 0 0.18 0 0.325 0 2.895-0.089 14.886 0.399 17.35-0.864 2.459-1.261 3.691-4.318 3.691-6.843v-37.683c0-2.522-1.232-5.58-3.691-6.843-2.463-1.261-14.455-0.772-17.35-0.864-0.146 0-0.255 0-0.325 0-0.074 0-0.185 0-0.326 0-3.040 0-17.474-0.532-20.004 0.73-2.535 1.263-3.801 4.365-3.801 6.978v37.682z" p-id="4489" fill="#25e6ee"></path></svg>