<?xml version="1.0" standalone="no"?><!DOCTYPE svg PUBLIC "-//W3C//DTD SVG 1.1//EN" "http://www.w3.org/Graphics/SVG/1.1/DTD/svg11.dtd"><svg t="1525400557760" class="icon" style="" viewBox="0 0 1504 1024" version="1.1" xmlns="http://www.w3.org/2000/svg" p-id="4218" xmlns:xlink="http://www.w3.org/1999/xlink" width="293.75" height="200"><defs><style type="text/css"></style></defs><path d="M1024.232727 103.330909c-7.13697 0-11.993212 0.868848-17.020121 2.032485v0.806788h0.868849c3.351273 6.438788 9.076364 11.139879 13.296484 16.880485 3.351273 6.62497 6.206061 13.234424 9.557334 19.781818l0.884363-0.930909c5.833697-4.06497 8.688485-10.627879 8.688485-20.573091-2.482424-2.916848-2.854788-5.818182-4.964848-8.657455-2.482424-4.142545-7.835152-6.190545-11.186425-9.464242l-0.124121 0.124121zM363.535515 919.102061h-57.592242a3129.406061 3129.406061 0 0 0-16.756364-272.678788h-0.512L201.076364 919.117576h-43.799273L70.299152 646.423273h-0.620607a4485.430303 4485.430303 0 0 0-12.101818 272.678788H5.073455c3.413333-121.561212 11.931152-235.566545 25.475878-341.922909h71.447273l82.928485 251.267878h0.496485l83.688727-251.267878h68.018424c15.049697 124.586667 23.862303 238.654061 26.59297 341.922909h-0.186182z m249.561212-252.276364c-23.489939 126.448485-54.427152 218.453333-92.70303 275.766303-29.944242 44.264727-62.743273 66.342788-98.33503 66.342788-9.510788 0-21.116121-2.854788-35.157334-8.533333V969.852121c6.826667 1.05503 14.894545 1.613576 23.970909 1.613576 16.647758 0 30.006303-4.63903 40.184243-13.730909 12.25697-11.124364 18.338909-23.614061 18.338909-37.391515 0-9.588364-4.778667-29.075394-14.273939-58.383515L392.098909 666.841212h56.537212l45.149091 145.904485c10.193455 33.140364 14.491152 56.273455 12.753455 69.430303 24.839758-65.784242 42.108121-137.681455 51.867151-215.350303h54.675394z m765.672728 252.276364h-163.374546V577.163636h54.970182V877.071515h108.419879v42.046061z m-206.24291 8.331636l-63.115636-30.906182a133.12 133.12 0 0 0 15.825455-15.453091c26.918788-31.294061 40.261818-77.777455 40.261818-139.310545 0-113.136485-44.606061-169.766788-133.864727-169.766788-43.752727 0-77.917091 14.336-102.508607 43.085576-26.717091 31.402667-40.137697 77.653333-40.137696 138.798545 0 60.105697 11.791515 104.261818 35.653818 132.313212 21.752242 25.351758 54.489212 38.027636 98.350545 38.027637 16.399515 0 31.433697-2.032485 45.040485-6.050909l82.307879 47.724606 22.372848-38.462061h-0.186182zM967.990303 850.649212c-13.963636-22.264242-20.945455-58.119758-20.945455-107.333818 0-86.124606 26.360242-129.225697 78.910061-129.225697 27.523879 0 47.833212 10.333091 60.695273 30.921697 13.917091 22.372848 20.883394 57.871515 20.883394 106.52703 0 86.807273-26.344727 130.327273-78.910061 130.327273-27.648 0-47.833212-10.317576-60.757333-30.906182l0.124121-0.310303z m-103.005091-26.282667c0 29.059879-10.674424 52.937697-32.054303 71.478303-21.364364 18.556121-49.881212 27.818667-85.969454 27.818667-33.745455 0-66.094545-10.627879-97.72994-31.837091l14.723879-29.432242c27.213576 13.606788 51.74303 20.278303 73.929697 20.278303 20.635152 0 36.83297-4.499394 48.64-13.591273a46.545455 46.545455 0 0 0 18.633697-38.027636c0-20.402424-14.273939-37.717333-40.246303-52.255031-24.110545-13.156848-72.254061-40.618667-72.254061-40.618666-26.220606-18.97503-39.253333-39.315394-39.253333-72.766061 0-27.818667 9.743515-50.082909 29.184-67.087515 19.580121-17.190788 44.730182-25.662061 75.791515-25.662061 31.806061 0 60.881455 8.409212 86.977939 25.351758l-13.234424 29.432242a170.046061 170.046061 0 0 0-66.094545-14.211878c-17.578667 0-31.185455 4.189091-40.634182 12.722424a42.278788 42.278788 0 0 0-15.406546 32.411151c0 20.278303 14.537697 37.701818 41.37891 52.549819a6085.197576 6085.197576 0 0 1 73.743515 41.425454c26.903273 18.850909 40.246303 38.94303 40.246303 72.207515l-0.372364-0.186182z m582.857697-361.813333c-1.241212-8.347152-21.922909-18.664727-28.765091-23.365818-13.420606-9.526303-27.337697-19.42497-41.611636-28.082424-7.462788-4.499394-20.324848-7.912727-28.578909-11.620849-11.186424-4.499394-36.150303-9.029818-42.371879-17.687273-12.489697-16.135758-20.883394-35.979636-29.571879-55.451151-8.828121-19.719758-19.564606-40.308364-28.268606-60.710788-4.530424-9.898667-6.702545-18.618182-11.682909-28.144485a368.717576 368.717576 0 0 0-129.520485-141.34303c-17.842424-11.124364-37.717333-21.379879-59.764363-28.423758-12.427636-3.661576-27.399758-1.613576-40.696243-4.514909h-8.688485c-7.462788-2.048-13.746424-9.898667-19.580121-13.979151-12.862061-8.657455-25.786182-14.460121-41.115151-20.650667-5.430303-2.482424-20.759273-8.285091-26.220607-3.832242-3.242667 0.930909-4.964848 2.218667-5.849212 5.569939-3.289212 4.933818-0.372364 12.412121 1.675637 16.92703 6.283636 13.187879 14.972121 21.02303 22.869333 32.162909 7.074909 9.821091 15.778909 21.02303 20.743758 31.71297 10.814061 23.117576 15.778909 48.717576 25.724121 71.835152 4.080485 9.278061 9.076364 18.121697 14.894545 26.406788 4.545939 6.361212 12.753455 10.891636 15.36 18.742303 4.964848 8.285091-7.447273 35.607273-10.379636 44.264727-10.752 33.82303-8.688485 80.989091 3.723636 110.359273 4.964848 11.512242 9.510788 25.227636 22.807273 28.439272 0.806788-0.853333 0-0.418909 1.675636-0.853333 2.978909-22.760727 3.785697-44.652606 11.682909-62.448485 4.530424-11.139879 13.653333-18.990545 19.87491-28.004848 4.158061 2.466909 4.158061 9.883152 6.656 14.832484 5.461333 12.8 11.170909 26.763636 17.997575 39.749819a541.168485 541.168485 0 0 0 46.421334 75.310545c6.593939 8.797091 13.870545 17.066667 21.736727 24.731152 3.366788 2.901333 6.904242 4.63903 9.572848 8.22303h0.930909v1.241212c-12.412121-4.57697-20.324848-17.43903-30.254545-24.855273-18.695758-14.041212-41.068606-35.064242-53.868606-55.342545-5.337212-11.620848-11.170909-22.683152-17.020121-34.304v-0.930909c-2.544485 3.335758-1.737697 6.609455-2.978909 11.558788-5.337212 20.712727-1.241212 44.218182-19.874909 51.618909-21.193697 8.719515-37.034667-14.025697-43.675152-24.296728-21.131636-34.443636-26.965333-92.315152-12.055273-139.108848 3.351273-10.27103 3.723636-22.49697 9.572849-30.921697-1.303273-7.416242-7.028364-9.510788-10.379637-14.025697-5.833697-7.788606-10.814061-16.880485-15.344484-25.537939-8.688485-17.004606-14.972121-37.282909-21.566061-55.466667-2.916848-7.478303-3.723636-14.832485-6.640485-22.000485-4.964848-10.643394-13.963636-21.457455-21.116121-30.921697-9.619394-13.591273-37.391515-40.060121-26.220606-66.901333 17.392485-42.52703 78.522182-10.379636 102.136242 4.452848 5.833697 3.770182 12.412121 11.636364 19.254303 14.537697 10.317576 0.434424 20.681697 1.179152 31.061334 1.660122 19.440485 4.57697 37.841455 8.285091 53.185939 16.942545 71.369697 41.673697 117.775515 84.278303 160.643879 154.577455 9.138424 14.832485 13.668848 30.968242 21.131636 47.16606a1091.366788 1091.366788 0 0 0 33.978182 71.912727c5.275152 10.767515 9.619394 22.760727 17.082182 31.775031 2.854788 4.142545 11.170909 5.383758 16.151273 7.866182 13.730909 7.043879 30.254545 12.365576 43.302787 20.635151a550.679273 550.679273 0 0 1 68.57697 50.889697c7.71103 6.935273 13.312 17.004606 20.759273 24.420848v3.723637c-6.640485 2.094545-13.296485 4.12703-19.874909 5.802667-14.599758 3.646061-27.523879 2.839273-41.627152 6.547393-8.688485 2.482424-19.502545 5.756121-28.578909 6.56291l0.806788 0.868848c5.461333 15.142788 34.536727 27.756606 47.833212 36.770909a199.788606 199.788606 0 0 1 43.178667 41.735758c4.096 4.096 8.269576 7.804121 12.427636 11.946666 2.792727 4.142545 3.661576 9.510788 6.516364 13.234425v1.241212c-5.833697-1.985939-8.750545-7.555879-13.28097-10.643394-9.153939-6.190545-18.338909-13.544727-27.337697-19.347394-15.84097-9.960727-34.179879-15.825455-50.331151-25.724121a338.106182 338.106182 0 0 1-26.530909-19.176728c-7.943758-5.802667-16.508121-16.880485-21.488485-25.165575-2.916848-4.561455-3.413333-9.945212-6.826667-13.218909 0.868848-7.850667 10.798545-7.850667 17.020121-10.333091 21.566061-9.153939 47.336727-12.489697 80.570182-11.620849z" p-id="4219" fill="#179de5"></path></svg>