<?xml version="1.0" standalone="no"?><!DOCTYPE svg PUBLIC "-//W3C//DTD SVG 1.1//EN" "http://www.w3.org/Graphics/SVG/1.1/DTD/svg11.dtd"><svg t="1525400532081" class="icon" style="" viewBox="0 0 1024 1024" version="1.1" xmlns="http://www.w3.org/2000/svg" p-id="3492" xmlns:xlink="http://www.w3.org/1999/xlink" width="200" height="200"><defs><style type="text/css"></style></defs><path d="M143.936 450.048H61.696c-33.92 0-61.696 27.776-61.696 61.696s27.776 61.696 61.696 61.696h82.24c33.92 0 61.696-27.776 61.696-61.696s-27.776-61.696-61.696-61.696z m-5.12 102.784H66.816c-22.592 0-41.088-18.496-41.088-41.088s18.496-41.088 41.088-41.088h71.936a41.152 41.152 0 0 1 0.064 82.176zM322.816 532.288h-16.96l47.744 41.152h-30.784l-72-61.696H322.752c11.328 0 20.544-9.792 20.544-21.056s-9.216-20.608-20.48-20.608H235.392v102.784h-20.544V449.536H322.752c22.592 0 41.088 18.496 41.088 40.576a41.664 41.664 0 0 1-41.024 42.176zM544.832 574.464L472.896 458.816a18.688 18.688 0 0 0-15.936-9.28 18.752 18.752 0 0 0-15.936 9.28L369.024 574.464h24.128l56-89.408 7.68-12.352 7.68 12.352 27.776 44.224h-65.28l10.432 20.48h67.84l15.424 24.64h24.128v0.064z m143.424-21.632H602.88c-22.592 0-41.088-18.496-41.088-41.088s18.496-41.088 41.088-41.088h69.888l15.424-20.544H597.76c-33.92 0-61.696 27.776-61.696 61.696s27.776 61.632 61.696 61.632h80.192l10.304-20.608z m32.896 0V450.048h-20.544v113.088c0 5.632 4.608 10.304 10.304 10.304h115.648l10.304-20.544h-115.712v-0.064z m139.264-31.296h104.32l10.304-20.544h-114.624a40.832 40.832 0 0 1 39.552-30.336h69.888l15.424-20.544h-90.432c-33.92 0-61.696 27.776-61.696 61.696s27.776 61.696 61.696 61.696h80.192l10.304-20.544H900.032a41.408 41.408 0 0 1-39.616-31.424z m148.544-71.488a15.104 15.104 0 0 0-15.424 15.424c0 8.768 6.656 15.424 15.424 15.424a15.104 15.104 0 0 0 15.424-15.424 15.488 15.488 0 0 0-15.424-15.424z m0 28.288a12.8 12.8 0 0 1-12.864-12.864 12.8 12.8 0 0 1 12.864-12.864 12.8 12.8 0 0 1 12.864 12.864 12.8 12.8 0 0 1-12.864 12.864z" fill="#d81e06" p-id="3493"></path></svg>