<?xml version="1.0" standalone="no"?><!DOCTYPE svg PUBLIC "-//W3C//DTD SVG 1.1//EN" "http://www.w3.org/Graphics/SVG/1.1/DTD/svg11.dtd"><svg t="1525400310405" class="icon" style="" viewBox="0 0 1024 1024" version="1.1" xmlns="http://www.w3.org/2000/svg" p-id="7649" xmlns:xlink="http://www.w3.org/1999/xlink" width="200" height="200"><defs><style type="text/css"></style></defs><path d="M951.313 372.86c5.4-14.4 8.505-29.115 8.505-44.078 0-216.81-347.107-216.81-461.182-216.81v68.895c217.058 0 344.52 34.74 381.015 103.118-109.575-73.013-301.635-73.102-380.993-73.102v-1.665c-4.342 0-434.498 2.205-434.498 192.51 0 17.82 4.050 33.998 11.317 48.938-7.245 15.030-11.317 31.613-11.317 49.995 0 17.235 3.803 32.94 10.62 47.475-6.84 14.692-10.62 30.892-10.62 48.713 0 28.192 9.090 52.718 27.405 73.71-16.988 20.003-27.405 43.943-27.405 73.305 0 113.153 146.475 168.188 447.84 168.188 238.567 0 447.817-112.725 447.817-241.177 0-29.655-7.29-56.16-19.237-80.303 12.33-21.375 19.237-43.74 19.237-66.668 0-19.53-2.88-37.215-8.1-53.415 5.085-13.972 8.1-28.26 8.1-42.772 0-20.093-3.015-38.318-8.505-54.855zM874.43 470.33c-6.098 8.46-13.95 17.032-23.265 25.492-3.667-2.362-7.403-4.68-11.16-6.952 11.498-6.773 22.32-13.86 32.423-21.263 0.675 0.923 1.418 1.8 2.003 2.722zM299.33 586.565c-60.615-9.067-105.953-22.635-133.808-40.072 6.727-4.882 14.22-9.54 22.635-13.905 74.137 24.885 181.485 37.328 323.843 37.328 91.035 0 177.683-16.492 250.178-43.943 9.113 3.983 17.91 8.168 26.347 12.645-66.33 34.942-161.64 61.313-276.525 61.313-4.567 0-8.865-0.090-13.342-0.135v-24.165c-42.975 0-121.095 0.18-199.328 10.935zM641.015 489.073c-39.465 7.447-82.53 11.947-129.015 11.947-72.697 0-136.327-3.51-189.765-10.148 62.617-11.948 128.43-17.663 176.422-17.663v1.080c43.808 0.023 93.487 4.995 142.358 14.782zM762.988 452.038c-86.243-32.445-185.49-46.62-264.352-46.62v-1.080c-2.835 0-185.468 0.99-313.043 53.888-6.66-2.97-12.645-6.12-18.090-9.383 71.078-49.545 236.047-71.775 331.11-71.775v-1.080c147.038 0 253.125 15.907 317.61 47.407-15.615 10.102-33.3 19.755-53.235 28.643zM162.238 621.688c-5.085 2.25-10.215 4.388-15.007 6.818-6.142-6.368-10.395-13.14-12.532-20.295 8.415 4.77 17.595 9.27 27.54 13.478zM300.95 656.45c59.175 8.167 129.195 12.397 211.050 12.397 131.76 0 254.43-34.492 337.973-86.918 1.958 1.935 3.667 3.938 5.49 5.895-57.262 55.283-180.585 108.315-343.485 108.315-118.507 0-213.188-9.225-278.235-26.28 18.72-5.063 41.040-9.585 67.207-13.41zM498.658 278.113v1.665c206.010 0 331.29 31.297 374.715 92.947-0.518 0.743-1.238 1.485-1.8 2.25-110.722-67.838-295.47-67.928-372.915-67.928v1.080c-3.217 0-240.705 1.305-363.15 79.65 24.48-76.343 246.555-109.665 363.15-109.665zM512 843.133c-237.285 0-378.945-37.125-378.945-99.27 0-7.042 2.565-18.9 15.233-31.995 72.945 35.595 193.613 53.167 363.712 53.167 154.058 0 295.47-47.16 376.65-114.997 1.305 6.772 2.295 13.657 2.295 20.835 0 68.535-151.155 172.26-378.945 172.26z" p-id="7650" fill="#1d4aca"></path></svg>