<?xml version="1.0" standalone="no"?><!DOCTYPE svg PUBLIC "-//W3C//DTD SVG 1.1//EN" "http://www.w3.org/Graphics/SVG/1.1/DTD/svg11.dtd"><svg t="1525917606755" class="icon" style="" viewBox="0 0 1024 1024" version="1.1" xmlns="http://www.w3.org/2000/svg" p-id="3654" xmlns:xlink="http://www.w3.org/1999/xlink" width="200" height="200"><defs><style type="text/css"></style></defs><path d="M704.134437 375.517559c1.169639-9.720386 0.023536-10.863419-9.570983-10.863419-61.034075-0.013303-122.066103-0.008186-183.099155-0.00307-60.802808 0.00307-121.606639-0.002047-182.41047 0.008186-11.116175 0-11.121292 0.027629-11.121292 10.995425 0.01228 104.398722 0.024559 208.79949 0.040932 313.197188 0 2.293229-0.046049 4.592598 0.090051 6.880711 1.128707 19.045775 14.948457 32.263821 34.036187 32.476669 9.864672 0.106424 19.733437 0.145309 29.598108 0.002047 5.167696-0.071631 7.700379 2.1295 7.67889 7.324826-0.118704 30.2827-0.188288 60.564377-0.325411 90.846054-0.094144 21.053502 8.293897 33.428344 26.431999 37.114293 11.924587 2.426259 24.197098 2.038426 36.243459-0.137123 12.986779-2.347464 25.01165-19.964704 24.810059-31.238468-0.573051-31.882128-0.026606-63.782675-0.240477-95.67606-0.042979-6.374174 2.240017-8.410554 8.444323-8.308223 17.663288 0.284479 35.331693 0.089028 53.000098 0.100284 10.854209 0.008186 11.336186 0.446162 11.349489 11.180644 0.034792 30.514991-0.066515 61.035098 0.069585 91.550089 0.080841 17.727757 11.275811 31.103392 28.596292 33.121352 9.247618 1.079588 18.690688 1.772366 28.090778 0.551562 3.682879-0.478907 7.120165-1.379417 10.489912-3.027963 14.363126-7.016811 19.641339-19.267832 19.709901-34.320667 0.137123-30.055526 0.008186-60.112076 0.047072-90.170672 0.011256-8.464789 0.447185-8.830109 9.061376-8.871041 9.406231-0.042979 18.820648 0.198521 28.219715-0.082888 14.971993-0.451278 31.391964-15.611559 30.769794-29.992081-0.51677-11.971659 0.555655-23.800056 0.565888-35.69292 0.084934-89.943498 0.011256-179.88495 0.127913-269.828448C704.846658 386.916167 703.435519 381.315612 704.134437 375.517559z" p-id="3655" fill="#bfbfbf"></path><path d="M326.756507 342.624405c61.252039 0.019443 122.506125 0.011256 183.759187 0.019443 61.483306 0.008186 122.964566 0.024559 184.448896-0.008186 9.17701-0.00307 9.882068-1.090844 6.880711-9.434883-16.585747-46.130643-45.537126-82.226746-87.434352-107.832937-6.599302-4.034896-7.150864-6.851035-2.862187-13.399171 4.771677-7.28594 9.549493-14.567787 14.217816-21.919219 4.418636-6.961552 8.792247-13.95585 12.998035-21.045315 1.967818-3.317559 1.893116-6.606465-1.687432-9.042957-3.66139-2.492774-6.523577-0.954745-8.965186 1.959631-1.172709 1.39886-2.075265 3.022847-3.119037 4.5312-9.634428 13.950733-17.406438 29.083385-27.41335 42.813085-2.856048 3.920286-5.362124 4.718465-9.741875 2.774183-6.272867-2.780323-12.685927-5.468548-19.296485-7.232728-45.594431-12.170181-90.632183-11.539824-134.719284 6.747681-4.095271 1.698688-6.862291 1.02433-9.211802-2.852978-4.396123-7.255241-9.05626-14.347776-13.623275-21.49864-5.306866-8.305153-10.595312-16.622586-15.962553-24.886807-2.202155-3.38919-5.270027-4.365424-8.898671-2.366907-3.854794 2.12029-3.935636 5.258771-2.00261 8.78406 1.210571 2.210341 2.276856 4.511757 3.63376 6.625908 7.553023 11.757788 15.174608 23.471574 22.774703 35.199687 4.652973 7.179516 4.186346 10.118452-2.572592 13.990642-16.813944 9.639544-32.042787 21.203928-45.263903 35.493375-19.596314 21.180392-34.293037 45.223994-43.512003 72.559573C316.014862 342.003258 316.582797 342.622358 326.756507 342.624405zM590.503447 260.449847c9.732665-0.062422 20.057825 9.900487 20.36891 19.655665 0.319272 9.975189-9.906627 20.706601-19.956517 20.947078-10.327206 0.243547-20.326954-9.497305-20.632923-20.100804C570.000484 271.188422 580.529281 260.514315 590.503447 260.449847zM427.753759 263.364223c9.661034-0.448208 18.359137 9.683547 18.299785 20.22974-0.057305 10.615779-8.701173 19.986193-18.597567 20.163225-10.353812 0.186242-20.011776-9.534144-20.046568-20.174482C406.632719 270.723841 416.695912 263.880993 427.753759 263.364223z" p-id="3656" fill="#bfbfbf"></path><path d="M815.054689 473.553363c-0.00307-19.254529 0.334621-38.518269-0.170892-57.758472-0.354064-13.44522-6.056949-23.737634-18.874883-30.258141-10.108219-5.14109-20.438495-4.313236-30.883381-4.326539-22.680559-0.026606-36.866652 14.242376-36.895305 36.929074-0.039909 31.629371-0.010233 63.260789-0.013303 94.89323-0.004093 32.320103 0.016373 64.637136-0.013303 96.957239-0.01228 13.46364 5.282307 23.585161 17.161868 30.685883 11.148921 6.665817 23.01518 5.046946 34.795481 4.485151 3.598968-0.171915 7.599072 1.075495 10.752902-0.475837 15.259542-7.516184 24.419156-18.8493 24.261567-37.044708C814.787606 562.949392 815.058782 518.249331 815.054689 473.553363z" p-id="3657" fill="#bfbfbf"></path><path d="M256.934279 381.175419c-5.275143 0.023536-10.55131-0.037862-15.826454 0.005117-23.113417 0.188288-39.505759 18.456351-37.012985 41.535999 0.618077 5.724375 0.843204 11.422144 0.843204 17.154705 0 27.29567 0 54.590316 0.002047 81.884962 0.002047 30.048363-0.091074 60.096726 0.045025 90.14509 0.059352 13.069667 6.396687 22.252817 17.687848 28.9084 11.629875 6.851035 24.089651 5.434779 36.217876 4.355191 20.502963-1.816369 32.988322-16.457834 32.846082-36.995589-0.086981-12.368702-1.052982-24.735357-0.976234-37.09792 0.320295-51.588959-1.213641-103.19429 1.025353-154.766876C292.745902 394.208247 271.895015 381.107881 256.934279 381.175419z" p-id="3658" fill="#bfbfbf"></path></svg>