<?xml version="1.0" standalone="no"?><!DOCTYPE svg PUBLIC "-//W3C//DTD SVG 1.1//EN" "http://www.w3.org/Graphics/SVG/1.1/DTD/svg11.dtd"><svg t="1525917657757" class="icon" style="" viewBox="0 0 1024 1024" version="1.1" xmlns="http://www.w3.org/2000/svg" p-id="5451" xmlns:xlink="http://www.w3.org/1999/xlink" width="200" height="200"><defs><style type="text/css"></style></defs><path d="M716.8 898.6H309.4c-17.8 0-32.2-14.4-32.2-32.2V158.9c0-17.8 14.4-32.2 32.2-32.2h407.4c17.8 0 32.2 14.4 32.2 32.2v707.5c-0.1 17.8-14.5 32.2-32.2 32.2z m-203.7-34.3c19.5 0 35.4-15.8 35.4-35.4 0-19.5-15.8-35.4-35.4-35.4-19.5 0-35.4 15.8-35.4 35.4 0 19.6 15.9 35.4 35.4 35.4z m-78.3-691.4c-4.7 0-8.6 3.8-8.6 8.6 0 4.7 3.8 8.6 8.6 8.6 4.7 0 8.6-3.8 8.6-8.6s-3.8-8.6-8.6-8.6z m118 0h-79.3c-4.7 0-8.6 3.8-8.6 8.6 0 4.7 3.8 8.6 8.6 8.6h79.3c4.7 0 8.6-3.8 8.6-8.6-0.1-4.8-3.9-8.6-8.6-8.6z m164 61.1H309.4v525.3h407.4V234z" fill="#bfbfbf" p-id="5452"></path></svg>