<?xml version="1.0" standalone="no"?><!DOCTYPE svg PUBLIC "-//W3C//DTD SVG 1.1//EN" "http://www.w3.org/Graphics/SVG/1.1/DTD/svg11.dtd"><svg t="1525931919784" class="icon" style="" viewBox="0 0 1024 1024" version="1.1" xmlns="http://www.w3.org/2000/svg" p-id="4252" xmlns:xlink="http://www.w3.org/1999/xlink" width="200" height="200"><defs><style type="text/css"></style></defs><path d="M672.768 443.392H532.48v-119.808c0-11.264-9.216-20.48-20.48-20.48s-20.48 9.216-20.48 20.48v119.808h-140.288c-11.264 0-20.48 9.216-20.48 20.48s9.216 20.48 20.48 20.48h140.288v216.576c0 11.264 9.216 20.48 20.48 20.48s20.48-9.216 20.48-20.48v-216.576h140.288c11.264 0 20.48-9.216 20.48-20.48s-9.216-20.48-20.48-20.48z" fill="#bfbfbf" p-id="4253"></path><path d="M833.024 220.672c-12.8-11.776-30.208-18.432-48.128-18.432h-3.584-2.048c-2.56 0-9.216 0.512-18.944 0.512-15.36 0-55.808-1.024-94.72-10.24-32.768-7.68-72.704-39.424-96.256-58.88-8.704-7.168-15.36-12.288-19.968-15.36-11.264-7.68-24.576-11.264-38.912-11.264-12.8 0-26.112 3.584-37.888 10.752-2.56 1.536-4.096 3.072-7.68 6.656-40.96 38.4-76.8 61.44-106.496 68.608-38.912 9.216-79.36 10.24-95.232 10.24-9.216 0-15.36-0.512-18.432-0.512H238.08c-17.92 0-35.328 6.656-47.616 18.432a67.584 67.584 0 0 0-22.528 50.176v120.32c0 461.312 315.904 521.728 329.216 523.776 4.608 1.024 9.216 1.024 12.8 1.024 3.072 0 7.168 0 12.288-1.024 13.312-2.56 331.776-62.976 331.776-524.288v-120.832c1.024-17.92-7.168-36.352-20.992-49.664z m-18.944 171.008c0 427.008-285.696 481.792-297.984 483.84-1.536 0.512-3.584 0.512-5.632 0.512h-5.632c-12.288-2.048-295.424-56.32-295.424-483.84V271.36c0-7.168 3.584-14.848 8.704-19.456 0 0 0.512 0 0.512-0.512 5.12-4.608 12.288-7.68 19.968-7.68h4.096c3.584 0 10.752 0.512 20.48 0.512 16.896 0 61.44-1.024 104.96-11.264 36.864-8.704 78.848-35.328 124.928-78.848 0.512-0.512 1.536-1.024 1.536-1.536 5.12-2.56 10.24-4.096 15.872-4.096 6.144 0 11.776 1.536 16.896 4.608 3.072 2.048 9.728 7.168 16.896 12.8 26.624 20.992 70.656 56.32 112.64 66.56 43.008 10.24 87.04 11.264 103.936 11.264 10.752 0 18.432-0.512 20.992-0.512h3.072c7.68 0 14.848 2.56 19.968 7.68 5.632 5.632 9.216 13.312 9.216 19.968v120.832z" fill="#bfbfbf" p-id="4254"></path></svg>