<?xml version="1.0" standalone="no"?><!DOCTYPE svg PUBLIC "-//W3C//DTD SVG 1.1//EN" "http://www.w3.org/Graphics/SVG/1.1/DTD/svg11.dtd"><svg t="1525931263359" class="icon" style="" viewBox="0 0 1024 1024" version="1.1" xmlns="http://www.w3.org/2000/svg" p-id="16535" xmlns:xlink="http://www.w3.org/1999/xlink" width="200" height="200"><defs><style type="text/css"></style></defs><path d="M608.256 744.448H282.112c-15.36 0-27.648-5.12-38.4-15.872-10.24-10.24-15.872-23.04-15.872-38.4s5.12-27.648 15.872-38.912c10.24-10.752 23.04-15.872 38.4-15.872h326.144c15.36 0 27.648 5.12 38.912 15.872 10.752 10.752 15.872 23.552 15.872 38.912 0 10.752-3.072 21.504-9.728 30.208l119.296-123.392v-286.72h-126.976c-15.872 0-30.208-3.584-41.472-10.752-11.776-7.168-20.992-15.872-28.16-27.136s-12.8-22.528-15.872-35.328c-3.584-12.8-5.12-24.576-5.12-35.84V92.672H221.184c-13.312 0-26.112 3.584-38.4 10.752-12.288 7.168-23.04 16.384-32.768 27.136s-16.896 22.528-22.528 35.84c-5.632 13.312-8.192 26.112-8.192 38.4v591.36c0 14.336 4.096 28.672 11.264 41.984 7.168 13.312 16.896 25.6 28.16 35.84s23.552 18.432 36.352 25.088c12.8 6.656 25.088 9.728 35.84 9.728H471.04l168.448-175.616c-7.68 8.192-18.432 11.264-31.232 11.264zM243.712 434.688c10.24-10.752 23.04-15.872 38.4-15.872h326.144c15.36 0 27.648 5.12 38.912 15.872s15.872 23.552 15.872 38.912-5.12 27.648-15.872 38.4c-10.752 10.24-23.552 15.872-38.912 15.872H282.112c-15.36 0-27.648-5.12-38.4-15.872-10.24-10.24-15.872-23.04-15.872-38.4 0.512-15.36 5.632-27.648 15.872-38.912z" fill="#bfbfbf" p-id="16536"></path><path d="M617.984 232.96c3.072 5.632 6.656 10.752 10.752 15.36 4.096 4.096 9.728 6.656 15.872 6.656h128V240.64c0-3.584-0.512-7.168-1.536-12.288-1.536-4.608-4.096-10.24-9.216-16.896-4.608-6.656-12.288-14.848-21.504-24.576-9.216-9.728-21.504-21.504-37.376-35.328-14.336-12.8-26.624-23.04-35.84-30.72-9.728-7.68-17.92-13.824-24.576-18.432-6.656-4.096-12.288-7.168-16.896-8.192-4.608-1.536-9.728-1.536-14.848-1.536h-1.536V199.68c0 4.096 1.024 9.216 2.048 15.36 1.536 6.144 3.584 12.288 6.656 17.92z m84.992 527.36c-10.24 10.24-20.992 20.992-31.232 31.744s-19.968 20.48-28.672 29.184l-21.504 21.504-11.264 11.264c-5.632 5.632-10.24 12.8-13.824 19.968-1.536 2.048-2.56 6.656-4.608 12.8-2.048 6.656-4.096 12.8-6.656 20.48l-6.144 21.504c-1.536 7.168-3.072 12.288-3.584 15.872-1.536 7.168-0.512 11.776 1.536 14.848 2.048 3.072 7.168 4.096 13.824 2.56 3.584-0.512 8.704-1.536 15.872-3.584 7.168-1.536 14.336-4.096 21.504-6.144 7.168-2.048 14.848-4.608 22.016-7.168 7.168-2.56 12.8-4.608 15.872-6.656 3.584-1.536 7.168-4.096 10.24-6.656 3.584-2.56 6.656-5.12 9.728-7.168 0.512-0.512 3.584-4.096 9.216-9.728 5.632-5.632 12.288-12.8 20.48-20.992l28.672-28.672 31.232-31.232 84.48-84.48-73.216-73.216-83.968 83.968z m212.48-96.256c-3.584-8.192-8.704-15.872-15.36-23.04s-12.8-12.288-18.432-15.36c-5.12-3.072-11.776-4.608-19.968-5.632-8.192-1.024-15.872 1.536-22.528 8.192-3.072 2.048-6.656 5.632-10.752 9.728-4.096 3.584-7.68 7.168-11.776 10.24l73.728 73.216c1.536-1.536 4.096-3.072 6.144-5.12 1.536-1.536 4.096-4.096 6.144-6.656 2.048-2.56 4.608-5.12 7.68-8.192 6.656-6.656 9.216-12.8 8.704-19.968-1.024-7.168-1.536-13.312-3.584-17.408z" fill="#bfbfbf" p-id="16537"></path></svg>