<?xml version="1.0" standalone="no"?><!DOCTYPE svg PUBLIC "-//W3C//DTD SVG 1.1//EN" "http://www.w3.org/Graphics/SVG/1.1/DTD/svg11.dtd"><svg t="1525932235333" class="icon" style="" viewBox="0 0 1024 1024" version="1.1" xmlns="http://www.w3.org/2000/svg" p-id="4422" xmlns:xlink="http://www.w3.org/1999/xlink" width="200" height="200"><defs><style type="text/css"></style></defs><path d="M512 1024c-17.7 0-32-14.3-32-32V434.9c0-17.7 14.3-32 32-32s32 14.3 32 32V992c0 17.7-14.3 32-32 32zM512 234.6c-17.7 0-32-14.3-32-32V32c0-17.7 14.3-32 32-32s32 14.3 32 32v170.6c0 17.6-14.3 32-32 32zM128 1024c-17.7 0-32-14.3-32-32V882.2c0-17.7 14.3-32 32-32s32 14.3 32 32V992c0 17.7-14.3 32-32 32zM128 683.7c-17.7 0-32-14.3-32-32V32c0-17.7 14.3-32 32-32s32 14.3 32 32v619.7c0 17.7-14.3 32-32 32zM896 1024c-17.7 0-32-14.3-32-32V768c0-17.7 14.3-32 32-32s32 14.3 32 32v224c0 17.7-14.3 32-32 32zM896 544c-17.7 0-32-14.3-32-32V32c0-17.7 14.3-32 32-32s32 14.3 32 32v480c0 17.7-14.3 32-32 32z" fill="#bfbfbf" p-id="4423"></path><path d="M512 448c-70.6 0-128-57.4-128-128s57.4-128 128-128 128 57.4 128 128-57.4 128-128 128z m0-192c-35.3 0-64 28.7-64 64s28.7 64 64 64 64-28.7 64-64-28.7-64-64-64zM128 896C57.4 896 0 838.6 0 768s57.4-128 128-128 128 57.4 128 128-57.4 128-128 128z m0-192c-35.3 0-64 28.7-64 64s28.7 64 64 64 64-28.7 64-64-28.7-64-64-64zM896 768c-70.6 0-128-57.4-128-128s57.4-128 128-128 128 57.4 128 128-57.4 128-128 128z m0-192c-35.3 0-64 28.7-64 64s28.7 64 64 64 64-28.7 64-64-28.7-64-64-64z" fill="#bfbfbf" p-id="4424"></path></svg>