<?xml version="1.0" standalone="no"?><!DOCTYPE svg PUBLIC "-//W3C//DTD SVG 1.1//EN" "http://www.w3.org/Graphics/SVG/1.1/DTD/svg11.dtd"><svg t="1525930436347" class="icon" style="" viewBox="0 0 1024 1024" version="1.1" xmlns="http://www.w3.org/2000/svg" p-id="15210" xmlns:xlink="http://www.w3.org/1999/xlink" width="200" height="200"><defs><style type="text/css"></style></defs><path d="M900.679323 422.606017l-72.462359 0c-7.234775-25.545816-17.396205-49.805336-30.244838-72.41324l52.220339-52.218292c23.461341-23.461341 23.461341-61.501726 0-84.963067l-42.48051-42.481534c-23.463388-23.463388-61.501726-23.463388-84.963067 0l-53.134151 53.134151c-21.239743-11.612479-44.001143-20.689205-67.759243-27.41949l0-72.458265c0-33.007765-26.755364-59.765175-59.764152-59.765175l-59.764152 0c-33.004695 0-59.764152 26.75741-59.764152 59.765175l0 72.458265c-24.64633 6.982018-48.15679 16.60826-70.081125 28.832675l-54.55143-54.54836c-23.460318-23.463388-61.501726-23.463388-84.962044 0l-42.481534 42.481534c-23.461341 23.461341-23.461341 61.501726 0 84.963067l54.54836 54.54529c-12.226462 21.931498-21.849634 45.435819-28.834722 70.086242l-72.458265 0c-33.002648 0-59.762105 26.754341-59.762105 59.762105l0 59.764152c0 33.007765 26.759457 59.767222 59.762105 59.767222l72.458265 0c6.731308 23.756053 15.812127 46.512337 27.42256 67.756173l-53.136198 53.133128c-23.461341 23.463388-23.461341 61.502749 0 84.963067l42.481534 42.48358c23.460318 23.461341 61.501726 23.461341 84.962044 0l52.221362-52.221362c22.606881 12.849656 46.86947 23.011086 72.41017 30.244838l0 72.459289c0 33.005718 26.759457 59.762105 59.764152 59.762105l59.764152 0c33.008788 0 59.764152-26.756387 59.764152-59.762105l0-72.459289c24.65247-6.979972 48.158836-16.610306 70.085218-28.831652l50.808176 50.808176c23.461341 23.461341 61.499679 23.461341 84.963067 0l42.48051-42.48358c23.461341-23.460318 23.461341-61.499679 0-84.963067l-50.808176-50.807153c12.229532-21.927405 21.852704-45.430702 28.832675-70.082148l72.462359 0c33.004695 0 59.761082-26.759457 59.761082-59.767222l0-59.764152C960.440405 449.361381 933.684018 422.606017 900.679323 422.606017zM512.209778 691.542142c-99.015108 0-179.291432-80.269162-179.291432-179.290409 0-99.020224 80.276325-179.293479 179.291432-179.293479 99.020224 0 179.293479 80.273255 179.293479 179.293479C691.503257 611.272981 611.230002 691.542142 512.209778 691.542142z" p-id="15211" fill="#bfbfbf"></path></svg>