<?xml version="1.0" standalone="no"?><!DOCTYPE svg PUBLIC "-//W3C//DTD SVG 1.1//EN" "http://www.w3.org/Graphics/SVG/1.1/DTD/svg11.dtd"><svg t="1525930419477" class="icon" style="" viewBox="0 0 1024 1024" version="1.1" xmlns="http://www.w3.org/2000/svg" p-id="14670" xmlns:xlink="http://www.w3.org/1999/xlink" width="200" height="200"><defs><style type="text/css"></style></defs><path d="M510.16 881c-195.87 0-355.23-160.14-355.23-357a8.36 8.36 0 1 1 16.72 0c0 187.61 151.86 340.25 338.51 340.25S848.67 711.65 848.67 524a8.36 8.36 0 1 1 16.72 0C865.38 720.86 706 881 510.16 881zM852.23 434.53a8.37 8.37 0 0 1-8.17-6.62c-18.9-88.95-70.2-165.43-144.42-215.37s-162.3-67.29-248.25-49a8.36 8.36 0 0 1-3.48-16.35C538.33 128 631 146.25 709 198.68s131.6 132.54 151.42 225.76a8.36 8.36 0 0 1-8.19 10.1zM182 396.83a8.37 8.37 0 0 1-7.84-11.26A359.8 359.8 0 0 1 289.38 227a8.36 8.36 0 0 1 10.32 13.15 343.11 343.11 0 0 0-109.82 151.22 8.36 8.36 0 0 1-7.88 5.46z" fill="#bfbfbf" p-id="14671"></path><path d="M438.18 360a16.72 16.72 0 0 1 23 5.32l74.65 119.46a16.72 16.72 0 0 1-5.32 23 16.72 16.72 0 0 1-23-5.32L432.86 383a16.72 16.72 0 0 1 5.32-23z" fill="#bfbfbf" p-id="14672"></path><path d="M436.589029 779.260795l83.783778-257.859953 17.83231 5.794069-83.783778 257.859953-17.83231-5.794069Z" fill="#bfbfbf" p-id="14673"></path><path d="M500.79 514.35a28.12 29.05 0 1 0 56.24 0 28.12 29.05 0 1 0-56.24 0Z" fill="#bfbfbf" p-id="14674"></path></svg>