<?xml version="1.0" standalone="no"?><!DOCTYPE svg PUBLIC "-//W3C//DTD SVG 1.1//EN" "http://www.w3.org/Graphics/SVG/1.1/DTD/svg11.dtd"><svg t="1525931842658" class="icon" style="" viewBox="0 0 1024 1024" version="1.1" xmlns="http://www.w3.org/2000/svg" p-id="2738" xmlns:xlink="http://www.w3.org/1999/xlink" width="200" height="200"><defs><style type="text/css"></style></defs><path d="M899.072 254.976c-2.048-1.024-4.096-1.536-6.144-2.048-141.312-27.648-256.512-95.232-370.176-181.76-7.168-5.632-21.504-5.632-28.672 0-51.712 39.936-105.472 78.848-162.304 111.104-62.464 35.328-138.752 51.712-207.872 70.144-18.432 4.608-23.04 22.016-18.432 36.352 5.632 131.072 27.136 268.288 81.92 387.584 57.856 125.952 193.536 220.16 314.88 277.504 4.096 2.048 8.192 3.072 12.288 3.072 5.12 0.512 10.752 0 16.384-3.072 121.344-59.904 246.272-153.6 307.712-277.504 58.368-117.76 76.8-263.68 81.92-394.752 0-15.36-9.728-24.576-21.504-26.624z m-109.568 392.704c-50.688 111.104-165.888 195.072-273.408 250.368-107.52-53.248-217.088-132.096-274.432-238.592-56.32-104.448-73.728-239.104-79.36-358.4 60.928-16.384 121.856-33.792 179.712-59.392 59.392-26.624 114.688-68.096 166.912-108.544 109.056 78.848 220.672 142.848 353.792 172.032-6.144 115.712-25.6 237.568-73.216 342.528z" fill="#bfbfbf" p-id="2739"></path><path d="M392.192 580.608h77.824l-74.24 97.28c-7.168 10.752-17.408 15.872-31.744 15.872h-65.536v-47.616h35.328c7.168 1.024 11.776-0.512 14.336-5.12l44.032-60.416z m-75.776-285.696h379.904V450.56c2.56 32.768-15.872 48.128-54.784 46.08h-220.672l-10.752 17.408h289.792v139.776c1.024 31.744-14.848 46.592-47.616 44.032h-74.24V650.24h47.616c7.168 0 10.24-3.072 8.704-8.704V563.2h-248.832l-14.336 17.408c-4.608 8.192-15.872 11.776-33.792 10.752h-36.864v-54.784h10.752c5.632 1.024 10.24-0.512 12.288-5.12l23.04-36.864h-30.208v-199.68z m307.2 51.2h-242.176v26.624h242.176v-26.624z m-241.664 102.4h236.544c5.632 1.024 8.192-1.024 7.168-7.168v-20.992h-243.712v28.16z m135.68 135.68h79.36l-72.192 95.232c-7.168 10.752-17.408 15.872-31.744 15.872h-59.904v-47.616h20.992c9.216 0 15.36-2.56 17.408-7.168l46.08-56.32z" fill="#bfbfbf" p-id="2740"></path></svg>