<?xml version="1.0" standalone="no"?><!DOCTYPE svg PUBLIC "-//W3C//DTD SVG 1.1//EN" "http://www.w3.org/Graphics/SVG/1.1/DTD/svg11.dtd"><svg t="1525931801367" class="icon" style="" viewBox="0 0 1024 1024" version="1.1" xmlns="http://www.w3.org/2000/svg" p-id="2023" xmlns:xlink="http://www.w3.org/1999/xlink" width="200" height="200"><defs><style type="text/css"></style></defs><path d="M1003.008 148.992c13.312 13.312 20.48 30.208 20.992 51.2V824.32c-0.512 20.48-7.68 37.888-20.992 51.2-13.312 13.312-30.208 20.48-51.2 20.992H72.192c-20.48-0.512-37.888-7.68-51.2-20.992-13.312-13.312-20.48-30.208-20.992-51.2V200.192c0.512-20.48 7.68-37.888 20.992-51.2 13.312-13.312 30.208-20.48 51.2-20.992H952.32c20.48 0.512 37.376 7.68 50.688 20.992z m-51.2 51.2H72.192v143.872H952.32V200.192zM256 415.744H72.192v408.064H256V415.744zM110.592 246.272c7.168-7.168 15.36-10.752 25.6-10.752s18.432 3.584 25.6 10.752 10.752 15.36 10.752 25.6-3.584 18.432-10.752 25.6-15.36 10.752-25.6 10.752-18.432-3.584-25.6-10.752-10.752-15.36-10.752-25.6 3.584-18.432 10.752-25.6z m103.936 0c7.168-7.168 15.36-10.752 25.6-10.752s18.432 3.584 25.6 10.752 10.752 15.36 10.752 25.6-3.584 18.432-10.752 25.6-15.36 10.752-25.6 10.752-18.432-3.584-25.6-10.752-10.752-15.36-10.752-25.6 3.584-18.432 10.752-25.6z m103.936 0c7.168-7.168 15.36-10.752 25.6-10.752s18.432 3.584 25.6 10.752 10.752 15.36 10.752 25.6-3.584 18.432-10.752 25.6-15.36 10.752-25.6 10.752-18.432-3.584-25.6-10.752-10.752-15.36-10.752-25.6 3.584-18.432 10.752-25.6z m633.344 169.472H328.192v168.96c0-0.512 0.512-1.024 1.024-1.024h622.08c0.512 0 1.024 0.512 1.024 1.024v-168.96z m0 239.104c0 0.512-0.512 1.024-1.024 1.024H329.216c-0.512 0-1.024-0.512-1.024-1.024v168.96H952.32v-168.96z" p-id="2024" fill="#bfbfbf"></path></svg>