<?xml version="1.0" standalone="no"?><!DOCTYPE svg PUBLIC "-//W3C//DTD SVG 1.1//EN" "http://www.w3.org/Graphics/SVG/1.1/DTD/svg11.dtd"><svg t="1525931893209" class="icon" style="" viewBox="0 0 1024 1024" version="1.1" xmlns="http://www.w3.org/2000/svg" p-id="3506" xmlns:xlink="http://www.w3.org/1999/xlink" width="200" height="200"><defs><style type="text/css"></style></defs><path d="M369.75481 283.751552c0-32.565696 26.399253-58.963926 58.962903-58.963926 32.558533 0 58.95574 26.39823 58.95574 58.963926 0 32.56979-26.397207 58.96188-58.95574 58.96188C396.154064 342.713432 369.75481 316.321342 369.75481 283.751552L369.75481 283.751552z" p-id="3507" fill="#bfbfbf"></path><path d="M237.90283 503.945557c0-35.913954 29.106922-65.013713 65.004503-65.013713 35.905768 0 65.012689 29.100782 65.012689 65.013713 0 35.907815-29.106922 65.010643-65.012689 65.010643C267.009751 568.9562 237.90283 539.854395 237.90283 503.945557L237.90283 503.945557z" p-id="3508" fill="#bfbfbf"></path><path d="M572.879044 418.893462c0-27.281343 22.12081-49.396014 49.4042-49.396014s49.4042 22.11467 49.4042 49.396014c0 27.28953-22.12081 49.412386-49.4042 49.412386S572.879044 446.182992 572.879044 418.893462L572.879044 418.893462z" p-id="3509" fill="#bfbfbf"></path><path d="M412.732647 508.533039c0-36.411281 29.515221-65.931618 65.927525-65.931618 36.412304 0 65.925479 29.520337 65.925479 65.931618 0 36.415374-29.514197 65.927525-65.925479 65.927525C442.247868 574.460564 412.732647 544.948413 412.732647 508.533039L412.732647 508.533039z" p-id="3510" fill="#bfbfbf"></path><path d="M262.5246 696.223768c0-52.037167 42.183751-94.226035 94.219895-94.226035 52.03512 0 94.217848 42.189891 94.217848 94.226035s-42.183751 94.221942-94.217848 94.221942C304.708352 790.446733 262.5246 748.260935 262.5246 696.223768L262.5246 696.223768z" p-id="3511" fill="#bfbfbf"></path><path d="M653.332401 589.69043c0-36.623106 29.684066-66.309218 66.303079-66.309218 36.623106 0 66.303079 29.686113 66.303079 66.309218 0 36.619012-29.679973 66.303079-66.303079 66.303079C683.016467 655.993508 653.332401 626.309442 653.332401 589.69043L653.332401 589.69043z" p-id="3512" fill="#bfbfbf"></path><path d="M358.643752 710.276832c-2.950192 0-5.930059-0.817622-8.590656-2.550079-7.335059-4.747117-9.422603-14.548344-4.6673-21.883403l102.036931-157.381423-138.867768-6.79987c-8.733918-0.429789-15.46011-7.852852-15.034415-16.578584 0.424672-8.727779 7.688099-15.35164 16.579607-15.035438l149.853983 7.337105-45.656853-203.27466c-1.912559-8.526187 3.445472-16.991999 11.971659-18.909675 8.590656-1.895163 16.998139 3.451612 18.910699 11.971659l44.601824 198.586894 118.2768-77.221756c7.314593-4.77884 17.114796-2.711761 21.900799 4.604878 4.7727 7.314593 2.713808 17.119913-4.600785 21.902846l-112.695688 73.577762 209.072713 65.560158c8.344039 2.612501 12.981662 11.493775 10.367115 19.830651-2.614547 8.341992-11.508102 12.979616-19.830651 10.367115l-229.664703-72.015174L371.938546 703.0615C368.910583 707.735963 363.829867 710.276832 358.643752 710.276832z" p-id="3513" fill="#bfbfbf"></path></svg>