<?xml version="1.0" standalone="no"?><!DOCTYPE svg PUBLIC "-//W3C//DTD SVG 1.1//EN" "http://www.w3.org/Graphics/SVG/1.1/DTD/svg11.dtd"><svg t="1525918383891" class="icon" style="" viewBox="0 0 1027 1024" version="1.1" xmlns="http://www.w3.org/2000/svg" p-id="7874" xmlns:xlink="http://www.w3.org/1999/xlink" width="200.5859375" height="200"><defs><style type="text/css"></style></defs><path d="M918.23 142.791h-803.166c-28.479 0-51.264 17.212-51.264 45.898v516.332c0 22.944 22.785 45.893 45.57 45.893h321.969l-8.682 91.794h-62.658c-22.78 0-39.874 28.681-39.874 51.63h381.649c5.693-17.21-11.394-51.63-34.179-51.63h-62.66l-8.677-91.794h321.971c22.785 0 45.57-22.948 45.57-45.893v-516.332c0-28.687-22.787-45.898-45.57-45.898zM912.533 618.964h-791.771v-424.54h791.771v424.54zM337.22 343.586c13.419 0 26.757-5.563 36.248-15.125 9.491-9.556 15.015-22.988 15.015-36.508 0-13.521-5.524-26.953-15.015-36.513-9.491-9.555-22.828-15.122-36.248-15.122-13.424 0-26.763 5.567-36.254 15.122-9.491 9.56-15.015 22.993-15.015 36.513 0 13.521 5.524 26.951 15.015 36.508 9.491 9.562 22.83 15.125 36.254 15.125zM758.737 412.432h-216.458v149.165h216.458v-149.165zM758.737 263.268h-216.458v17.21h216.458v-17.21zM758.737 297.688h-216.458v17.215h216.458v-17.215zM491.015 412.432h-216.456v17.21h216.456v-17.21zM491.015 446.851h-216.456v17.212h216.456v-17.212zM491.015 475.539h-216.456v17.21h216.456v-17.21zM491.015 509.959h-216.456v17.212h216.456v-17.212zM491.015 544.379h-216.456v17.215h216.456v-17.215z" p-id="7875" fill="#bfbfbf"></path></svg>