<?xml version="1.0" standalone="no"?><!DOCTYPE svg PUBLIC "-//W3C//DTD SVG 1.1//EN" "http://www.w3.org/Graphics/SVG/1.1/DTD/svg11.dtd"><svg t="1525930565198" class="icon" style="" viewBox="0 0 1024 1024" version="1.1" xmlns="http://www.w3.org/2000/svg" p-id="15766" xmlns:xlink="http://www.w3.org/1999/xlink" width="200" height="200"><defs><style type="text/css"></style></defs><path d="M781.312 335.36c-1.536-16.896-14.848-29.184-30.72-29.184L556.544 307.2c-9.216 0-17.92 4.096-24.064 11.264l-268.8 303.104c-12.288 13.824-11.776 34.816 1.024 46.592l209.92 198.144c12.8 12.288 33.28 10.752 45.056-3.072l263.168-296.448c0 0 17.408-22.528 15.36-45.056C796.672 498.176 781.312 335.36 781.312 335.36L781.312 335.36zM635.904 467.456c-16.896-15.872-17.408-43.52-1.536-61.44 15.872-17.92 42.496-19.456 59.392-3.584 16.896 15.872 17.408 43.52 1.536 61.44C679.424 481.792 652.8 483.328 635.904 467.456L635.904 467.456z" p-id="15767" fill="#bfbfbf"></path><path d="M239.616 572.416l268.8-303.104c6.144-7.168 14.848-11.264 24.064-11.264l178.688-1.024-6.144-49.152c-1.536-16.896-14.848-29.696-31.232-29.696L481.792 178.176c-9.216 0-17.92 3.584-24.064 10.752L194.56 485.376c-11.776 13.312-11.264 34.304 2.048 46.592L239.616 572.416C239.616 572.416 239.616 572.416 239.616 572.416L239.616 572.416z" p-id="15768" fill="#bfbfbf"></path></svg>