<?xml version="1.0" standalone="no"?><!DOCTYPE svg PUBLIC "-//W3C//DTD SVG 1.1//EN" "http://www.w3.org/Graphics/SVG/1.1/DTD/svg11.dtd"><svg t="1525930365244" class="icon" style="" viewBox="0 0 1025 1024" version="1.1" xmlns="http://www.w3.org/2000/svg" p-id="12529" xmlns:xlink="http://www.w3.org/1999/xlink" width="200.1953125" height="200"><defs><style type="text/css"></style></defs><path d="M843.488 712.092l2.141 0c12.837 0 23.178 10.336 23.178 23.18l0 233.55c0 12.835-10.341 23.18-23.178 23.18l-2.141 0c-12.835 0-23.176-10.343-23.176-23.18l0-233.55c0-12.482 10.341-23.18 23.176-23.18zM984.337 851.157l0 2.134c0 12.839-10.339 23.18-23.178 23.18l-233.557 0c-12.833 0-23.178-10.341-23.178-23.18l0-2.134c0-12.839 10.343-23.18 23.178-23.18l233.556 0c12.84 0 23.18 10.341 23.18 23.18zM465.699 230.891c83.968 0 195.934 26.208 195.934 252.635 0 18.546 15.338 33.877 33.878 33.877 18.543 0 33.877-15.33 33.877-33.877 0-264.577-142.987-319.67-262.976-319.67-119.983 0-262.972 55.624-262.972 319.67 0 111.787 51.345 219.832 131.398 280.446l0 4.991c-177.931 25.502-291.323 98.061-291.323 187.916 0 18.541 15.334 33.878 33.875 33.878 18.543 0 33.875-15.336 33.875-33.878 0-47.42 97.701-107.506 261.368-125.513 16.937-1.605 29.949-16.402 29.949-33.342l0-51.88c0-11.41-6.062-21.747-15.334-28.344-69.351-45.29-116.243-139.602-116.243-234.627-0.531-226.783 110.722-252.279 194.694-252.279zM881.999 395.095l-42.61-10.874c-13.552-194.156-176.151-348.016-373.69-348.016-201.286 0-365.491 159.388-374.228 358.355l-25.133 21.215c-7.669 6.594-11.947 15.867-11.947 25.672l0 133.178c0 18.543 15.336 33.878 33.877 33.878s33.875-15.336 33.875-33.878l0-117.311 25.137-20.681c7.667-6.596 11.944-15.865 11.944-25.671 0-169.729 137.995-307.189 307.189-307.189 169.196 0 307.191 137.993 307.191 307.189 0 15.334 10.342 28.882 25.673 32.804l42.077 10.343 0 121.057c0 18.543 15.332 33.873 33.875 33.873 18.541 0 33.873-15.33 33.873-33.873l0-147.265c-1.427-15.865-11.767-29.596-27.099-32.806zM755.951 532.555c-6.061 18.009-62.223 63.824-250.494 63.824-18.541 0-33.875 15.336-33.875 33.879 0 18.54 15.336 33.87 33.875 33.87 286.331 0 314.32-99.837 316.996-119.985l-33.337-4.277-33.163-7.312zM597.807 768.249l0-22.462c0-18.546-15.33-33.877-33.873-33.877-18.541 0-33.877 15.33-33.877 33.877l0 51.878c0 16.943 13.013 31.559 29.951 33.344 17.472 2.138 34.41 4.277 50.277 7.128l0-68.284c-3.738 0-8.196-0.533-12.479-1.605z" p-id="12530" fill="#bfbfbf"></path></svg>